<svg width="1886" height="3685" viewBox="0 0 1886 3685" fill="none" xmlns="http://www.w3.org/2000/svg">
<g filter="url(#filter0_d)">
<path fill-rule="evenodd" clip-rule="evenodd" d="M1882 0H4V3677H1882V0ZM925.383 1804.05C947.229 1788.66 961.5 1763.25 961.5 1734.5C961.5 1706.14 947.607 1681.02 926.254 1665.58L1068.4 1700.72C1066.23 1708.63 1062.9 1716.52 1058.36 1724.28C1049.42 1739.58 1035.86 1754.23 1017.82 1767.01C999.772 1779.8 977.877 1790.26 953.229 1797.5C944.187 1800.15 934.879 1802.34 925.383 1804.05ZM828.608 1804.73C843.732 1807.22 859.3 1808.5 875 1808.5C892.086 1808.5 909.013 1806.99 925.383 1804.05C911.557 1813.78 894.696 1819.5 876.5 1819.5C858.737 1819.5 842.246 1814.05 828.608 1804.73ZM828.608 1804.73C806.205 1789.43 791.5 1763.68 791.5 1734.5C791.5 1717.07 796.749 1700.86 805.752 1687.37C804.296 1691.15 803.5 1695.24 803.5 1699.5C803.5 1718.83 819.842 1734.5 840 1734.5C860.159 1734.5 876.5 1718.83 876.5 1699.5C876.5 1680.17 860.159 1664.5 840 1664.5C833.763 1664.5 827.89 1666 822.754 1668.65C824.564 1667.17 826.436 1665.76 828.365 1664.43L875 1652.9L926.254 1665.58C912.268 1655.46 895.08 1649.5 876.5 1649.5C858.631 1649.5 842.05 1655.01 828.365 1664.43L681.602 1700.72C683.773 1708.63 687.102 1716.52 691.641 1724.28C700.582 1739.58 714.14 1754.23 732.186 1767.01C750.229 1779.8 772.124 1790.26 796.772 1797.5C807.078 1800.52 817.728 1802.94 828.608 1804.73ZM805.752 1687.37C810.463 1680.31 816.201 1674 822.754 1668.65C814.954 1672.66 808.854 1679.32 805.752 1687.37ZM875 1622L1101.5 1678C1101.5 1699.08 1095.64 1719.95 1084.26 1739.42C1072.88 1758.89 1056.19 1776.59 1035.16 1791.49C1014.13 1806.39 989.159 1818.22 961.678 1826.28C934.198 1834.35 904.745 1838.5 875 1838.5C845.256 1838.5 815.803 1834.35 788.323 1826.28C760.842 1818.22 735.873 1806.39 714.841 1791.49C693.808 1776.59 677.124 1758.89 665.742 1739.42C654.359 1719.95 648.5 1699.08 648.5 1678L875 1622ZM1164.5 1702C1164.5 1945.28 1116.78 2986 873.5 2986C630.219 2986 589 1945.28 589 1702C589 1643.4 591.391 1667.16 598.421 1736.99C620.577 1957.11 688.814 2635 873.5 2635C1056.44 2635 1128.8 1969.84 1153.44 1743.35V1743.35C1161.56 1668.64 1164.5 1641.66 1164.5 1702ZM691 1622L649 1531L621.761 1543.57L663.761 1634.57L691 1622ZM1132.38 1548L1090 1638.82L1062.81 1626.14L1105.19 1535.31L1132.38 1548ZM763.872 1602.73L695.493 1461.95L668.507 1475.05L736.886 1615.84L763.872 1602.73ZM1084.03 1477.49L1016.28 1618.58L989.235 1605.6L1056.98 1464.51L1084.03 1477.49ZM839.91 1583.61L743.817 1382.77L716.756 1395.72L812.848 1596.55L839.91 1583.61ZM1037.38 1400.75L937.131 1599.55L910.344 1586.04L1010.59 1387.25L1037.38 1400.75ZM500.875 396.844L485.266 422.438L469.797 396.844H464.453C460.234 397.078 456.484 397.383 453.203 397.758C449.922 398.133 447.133 398.508 444.836 398.883C442.164 399.305 439.797 399.75 437.734 400.219V416.531C438.906 415.875 440.477 415.289 442.445 414.773C444.414 414.211 446.5 413.766 448.703 413.438C450.953 413.062 453.203 412.781 455.453 412.594C457.75 412.406 459.812 412.312 461.641 412.312L476.547 436.922L461.641 461.531C459.812 461.531 457.75 461.438 455.453 461.25C453.203 461.062 450.953 460.805 448.703 460.477C446.5 460.102 444.414 459.656 442.445 459.141C440.477 458.578 438.906 457.969 437.734 457.312V473.625C439.797 474.094 442.164 474.539 444.836 474.961C447.133 475.336 449.922 475.711 453.203 476.086C456.484 476.461 460.234 476.766 464.453 477H469.797L485.266 451.547L500.875 477H506.219C510.438 476.766 514.188 476.461 517.469 476.086C520.75 475.711 523.539 475.336 525.836 474.961C528.508 474.539 530.875 474.094 532.938 473.625V457.312C531.719 457.969 530.125 458.578 528.156 459.141C526.188 459.656 524.078 460.102 521.828 460.477C519.625 460.805 517.398 461.062 515.148 461.25C512.898 461.438 510.859 461.531 509.031 461.531L493.984 436.922L509.031 412.312C510.859 412.312 512.898 412.406 515.148 412.594C517.398 412.781 519.625 413.062 521.828 413.438C524.078 413.766 526.188 414.211 528.156 414.773C530.125 415.289 531.719 415.875 532.938 416.531V400.219C530.875 399.75 528.508 399.305 525.836 398.883C523.539 398.508 520.75 398.133 517.469 397.758C514.188 397.383 510.438 397.078 506.219 396.844H500.875ZM594.109 395.859H576.25V371.391H559.516V395.859H546.297V407.672H559.516V477H576.25V407.672H594.109V395.859ZM667.586 397.195C664.211 396.961 661.328 396.844 658.938 396.844C655.844 396.844 652.492 396.961 648.883 397.195C645.32 397.43 641.734 397.852 638.125 398.461C634.516 399.023 631.023 399.844 627.648 400.922C624.32 401.953 621.367 403.289 618.789 404.93C616.211 406.57 614.148 408.562 612.602 410.906C611.055 413.203 610.281 415.922 610.281 419.062V473.062C614.266 473.812 618.742 474.469 623.711 475.031C627.977 475.547 633.086 476.016 639.039 476.438C644.992 476.812 651.625 477 658.938 477C666.203 477 673.961 476.695 682.211 476.086C690.508 475.477 699.109 474.469 708.016 473.062V457.453C703.984 458.484 699.461 459.398 694.445 460.195C690.086 460.898 684.906 461.531 678.906 462.094C672.953 462.656 666.297 462.938 658.938 462.938C654.109 462.938 649.07 462.797 643.82 462.516C638.57 462.188 633.109 461.625 627.438 460.828V442.828H708.016V419.062C708.016 415.922 707.125 413.203 705.344 410.906C703.609 408.562 701.312 406.57 698.453 404.93C695.641 403.289 692.453 401.953 688.891 400.922C685.328 399.844 681.719 399.023 678.062 398.461C674.453 397.852 670.961 397.43 667.586 397.195ZM690.578 431.578H627.438V423.562C627.438 421.641 627.953 420 628.984 418.641C630.016 417.234 631.398 416.062 633.133 415.125C634.867 414.141 636.859 413.367 639.109 412.805C641.359 412.195 643.703 411.727 646.141 411.398C648.578 411.07 650.992 410.859 653.383 410.766C655.82 410.672 658.094 410.625 660.203 410.625C662.219 410.625 664.352 410.672 666.602 410.766C668.898 410.859 671.172 411.07 673.422 411.398C675.672 411.68 677.828 412.125 679.891 412.734C682 413.297 683.828 414.047 685.375 414.984C686.969 415.922 688.234 417.094 689.172 418.5C690.109 419.859 690.578 421.5 690.578 423.422V431.578ZM819.953 398.109C814.141 396.891 807.625 396.281 800.406 396.281C794.453 396.281 789.18 396.445 784.586 396.773C779.992 397.055 775.75 397.617 771.859 398.461C767.969 399.258 764.266 400.406 760.75 401.906C757.234 403.359 753.578 405.234 749.781 407.531C748.562 405.562 747.156 403.898 745.562 402.539C743.969 401.18 742.445 400.078 740.992 399.234C739.305 398.25 737.594 397.453 735.859 396.844L727.984 410.625C729.062 411.141 730.047 411.797 730.938 412.594C731.734 413.25 732.461 414.094 733.117 415.125C733.82 416.156 734.266 417.422 734.453 418.922V477H752.875V418.922C754.75 417.75 756.789 416.625 758.992 415.547C761.195 414.469 763.539 413.508 766.023 412.664C768.508 411.82 771.133 411.164 773.898 410.695C776.711 410.18 779.641 409.922 782.688 409.922V477H799.703V409.922C803.359 409.922 806.945 410.18 810.461 410.695C813.977 411.211 817.117 412.172 819.883 413.578C822.648 414.984 824.875 416.93 826.562 419.414C828.25 421.852 829.094 425.016 829.094 428.906V477H847.516V424.688C847.516 420 846.414 415.898 844.211 412.383C842.008 408.82 838.867 405.844 834.789 403.453C830.711 401.062 825.766 399.281 819.953 398.109ZM876.484 399.656C873.953 400.219 872.031 400.688 870.719 401.062V503.719H888.719V472.781C892.375 474.281 896.57 475.359 901.305 476.016C906.039 476.672 911.172 477 916.703 477C923.453 477 929.781 476.344 935.688 475.031C941.594 473.719 946.75 471.516 951.156 468.422C955.562 465.328 959.031 461.227 961.562 456.117C964.094 450.961 965.359 444.562 965.359 436.922C965.359 429.141 964.188 422.648 961.844 417.445C959.547 412.242 956.125 408.07 951.578 404.93C947.031 401.789 941.383 399.562 934.633 398.25C927.93 396.938 920.172 396.281 911.359 396.281C906.391 396.281 901.727 396.469 897.367 396.844C893.055 397.172 889.141 397.594 885.625 398.109C882.109 398.578 879.062 399.094 876.484 399.656ZM904.047 411.609C906.438 411.422 909.156 411.328 912.203 411.328C917.828 411.328 922.844 411.727 927.25 412.523C931.656 413.32 935.383 414.703 938.43 416.672C941.477 418.641 943.797 421.266 945.391 424.547C946.984 427.828 947.781 431.953 947.781 436.922C947.781 440.578 947.195 443.977 946.023 447.117C944.852 450.211 943 452.883 940.469 455.133C937.984 457.383 934.773 459.164 930.836 460.477C926.945 461.742 922.234 462.375 916.703 462.375C912.953 462.375 909.742 462.352 907.07 462.305C904.445 462.211 902.102 462.07 900.039 461.883C898.023 461.695 896.125 461.438 894.344 461.109C892.609 460.734 890.734 460.266 888.719 459.703V414.703C889.891 414.234 891.203 413.812 892.656 413.438C894.109 413.016 895.773 412.664 897.648 412.383C899.57 412.055 901.703 411.797 904.047 411.609ZM1040.24 396.141C1036.35 395.766 1032.44 395.578 1028.5 395.578C1024.61 395.578 1020.7 395.766 1016.76 396.141C1012.87 396.516 1009.12 397.125 1005.51 397.969C1001.9 398.812 998.523 399.867 995.383 401.133C992.289 402.398 989.57 403.922 987.227 405.703C984.93 407.484 983.125 409.547 981.812 411.891C980.5 414.188 979.844 416.766 979.844 419.625V456.047C979.844 458.625 980.5 460.969 981.812 463.078C983.125 465.141 984.93 467.016 987.227 468.703C989.57 470.344 992.289 471.773 995.383 472.992C998.523 474.211 1001.9 475.219 1005.51 476.016C1009.12 476.812 1012.87 477.398 1016.76 477.773C1020.7 478.195 1024.61 478.406 1028.5 478.406C1032.39 478.406 1036.3 478.195 1040.24 477.773C1044.18 477.398 1047.95 476.812 1051.56 476.016C1055.17 475.219 1058.55 474.211 1061.69 472.992C1064.83 471.773 1067.55 470.344 1069.84 468.703C1072.19 467.016 1074.02 465.117 1075.33 463.008C1076.64 460.898 1077.3 458.578 1077.3 456.047V419.625C1077.3 416.766 1076.64 414.188 1075.33 411.891C1074.02 409.547 1072.19 407.484 1069.84 405.703C1067.55 403.922 1064.83 402.398 1061.69 401.133C1058.55 399.867 1055.17 398.812 1051.56 397.969C1047.95 397.125 1044.18 396.516 1040.24 396.141ZM1000.38 457.172C998.594 455.578 997.703 453.703 997.703 451.547V422.297C997.703 420.141 998.594 418.266 1000.38 416.672C1002.2 415.031 1004.57 413.672 1007.48 412.594C1010.38 411.516 1013.66 410.719 1017.32 410.203C1021.02 409.641 1024.75 409.359 1028.5 409.359C1032.44 409.359 1036.23 409.664 1039.89 410.273C1043.59 410.836 1046.88 411.68 1049.73 412.805C1052.59 413.883 1054.87 415.242 1056.55 416.883C1058.29 418.477 1059.16 420.281 1059.16 422.297V451.547C1059.16 453.609 1058.29 455.438 1056.55 457.031C1054.87 458.578 1052.59 459.891 1049.73 460.969C1046.88 462 1043.59 462.797 1039.89 463.359C1036.23 463.922 1032.44 464.203 1028.5 464.203C1024.75 464.203 1021.02 463.945 1017.32 463.43C1013.66 462.914 1010.38 462.141 1007.48 461.109C1004.57 460.031 1002.2 458.719 1000.38 457.172ZM1156.4 412.102C1156.73 406.805 1156.89 401.719 1156.89 396.844C1152.81 396.938 1149.23 397.055 1146.13 397.195C1143.09 397.289 1140.32 397.477 1137.84 397.758C1135.4 398.039 1133.15 398.414 1131.09 398.883C1129.07 399.305 1127.1 399.914 1125.18 400.711C1123.3 401.508 1121.36 402.492 1119.34 403.664C1117.33 404.789 1115.12 406.172 1112.73 407.812C1111.47 405.797 1110.02 404.109 1108.38 402.75C1106.78 401.344 1105.26 400.195 1103.8 399.305C1102.12 398.273 1100.41 397.453 1098.67 396.844L1091.22 410.625C1092.3 411.141 1093.26 411.797 1094.1 412.594C1094.85 413.25 1095.55 414.094 1096.21 415.125C1096.91 416.156 1097.36 417.422 1097.55 418.922V477H1115.55V419.344C1116.44 418.781 1117.45 418.031 1118.57 417.094C1119.7 416.156 1121.15 415.242 1122.93 414.352C1124.71 413.414 1126.94 412.617 1129.61 411.961C1132.33 411.258 1135.75 410.859 1139.88 410.766C1139.88 413.156 1139.73 415.43 1139.45 417.586C1139.22 419.695 1138.96 421.547 1138.68 423.141C1138.3 425.016 1137.91 426.75 1137.48 428.344H1154.5C1155.44 422.766 1156.07 417.352 1156.4 412.102ZM1177.56 477H1195.42V396.844H1177.56V477ZM1194.79 370.758C1192.77 369.586 1190.03 369 1186.56 369C1183.23 369 1180.54 369.586 1178.48 370.758C1176.46 371.883 1175.45 373.688 1175.45 376.172V379.688C1175.45 381.938 1176.46 383.555 1178.48 384.539C1180.54 385.523 1183.23 386.016 1186.56 386.016C1190.03 386.016 1192.77 385.523 1194.79 384.539C1196.8 383.555 1197.81 381.938 1197.81 379.688V376.172C1197.81 373.688 1196.8 371.883 1194.79 370.758ZM1281.7 397.406C1276.54 397.031 1270.98 396.844 1265.03 396.844C1262.12 396.844 1258.98 396.914 1255.61 397.055C1252.28 397.148 1248.81 397.336 1245.2 397.617C1241.59 397.852 1237.91 398.18 1234.16 398.602C1230.41 398.977 1226.73 399.469 1223.12 400.078C1222.84 401.719 1222.54 403.852 1222.21 406.477C1221.93 409.102 1221.65 411.75 1221.37 414.422C1221.09 417.047 1220.85 419.461 1220.66 421.664C1220.52 423.867 1220.45 425.391 1220.45 426.234H1236.48C1236.48 425.531 1236.53 424.664 1236.62 423.633C1236.72 422.555 1236.84 421.383 1236.98 420.117C1237.16 418.852 1237.35 417.539 1237.54 416.18C1237.73 414.773 1237.94 413.391 1238.17 412.031C1240.8 411.656 1243.61 411.305 1246.61 410.977C1249.66 410.648 1252.8 410.367 1256.03 410.133C1259.27 409.898 1262.52 409.711 1265.8 409.57C1269.13 409.43 1272.39 409.359 1275.58 409.359C1281.16 409.359 1286.41 409.641 1291.33 410.203C1286.83 414.562 1281.81 418.969 1276.28 423.422C1270.75 427.875 1264.96 432.258 1258.91 436.57C1252.87 440.836 1246.7 444.984 1240.42 449.016C1234.14 453.047 1228 456.797 1222 460.266V473.906C1225.84 474.469 1230.06 474.984 1234.66 475.453C1238.59 475.828 1243.14 476.18 1248.3 476.508C1253.45 476.836 1258.98 477 1264.89 477C1267.8 477 1271.01 476.953 1274.52 476.859C1278.04 476.719 1281.67 476.531 1285.42 476.297C1289.17 476.062 1292.95 475.758 1296.74 475.383C1300.59 474.961 1304.31 474.469 1307.92 473.906C1308.16 472.828 1308.39 471.516 1308.62 469.969C1308.86 468.375 1309.07 466.711 1309.26 464.977C1309.49 463.242 1309.68 461.484 1309.82 459.703C1310.01 457.922 1310.17 456.258 1310.31 454.711C1310.45 453.164 1310.55 451.805 1310.59 450.633C1310.69 449.461 1310.73 448.594 1310.73 448.031H1294.56C1294.56 448.688 1294.52 449.531 1294.42 450.562C1294.33 451.547 1294.21 452.648 1294.07 453.867C1293.93 455.039 1293.77 456.305 1293.58 457.664C1293.46 458.54 1293.34 459.406 1293.22 460.263C1293.15 460.735 1293.08 461.205 1293.02 461.672C1290.25 462.047 1287.23 462.422 1283.95 462.797C1280.66 463.125 1277.29 463.43 1273.82 463.711C1270.35 463.945 1266.84 464.133 1263.27 464.273C1259.71 464.414 1256.27 464.484 1252.94 464.484C1251.3 464.484 1249.52 464.461 1247.59 464.414C1245.72 464.32 1244.03 464.203 1242.53 464.062C1246.42 461.672 1250.48 459.023 1254.7 456.117C1258.96 453.211 1263.2 450.211 1267.42 447.117C1271.69 444.023 1275.84 440.883 1279.87 437.695C1283.9 434.461 1287.67 431.32 1291.19 428.273C1294.75 425.227 1297.96 422.344 1300.82 419.625C1303.73 416.859 1306.09 414.375 1307.92 412.172V400.078C1304.08 399.516 1299.88 398.977 1295.34 398.461C1291.4 398.086 1286.85 397.734 1281.7 397.406ZM1387.87 397.195C1384.49 396.961 1381.61 396.844 1379.22 396.844C1376.12 396.844 1372.77 396.961 1369.16 397.195C1365.6 397.43 1362.02 397.852 1358.41 398.461C1354.8 399.023 1351.3 399.844 1347.93 400.922C1344.6 401.953 1341.65 403.289 1339.07 404.93C1336.49 406.57 1334.43 408.562 1332.88 410.906C1331.34 413.203 1330.56 415.922 1330.56 419.062V473.062C1334.55 473.812 1339.02 474.469 1343.99 475.031C1348.26 475.547 1353.37 476.016 1359.32 476.438C1365.27 476.812 1371.91 477 1379.22 477C1386.48 477 1394.24 476.695 1402.49 476.086C1410.79 475.477 1419.39 474.469 1428.3 473.062V457.453C1424.27 458.484 1419.74 459.398 1414.73 460.195C1410.37 460.898 1405.19 461.531 1399.19 462.094C1393.23 462.656 1386.58 462.938 1379.22 462.938C1374.39 462.938 1369.35 462.797 1364.1 462.516C1358.85 462.188 1353.39 461.625 1347.72 460.828V442.828H1428.3V419.062C1428.3 415.922 1427.41 413.203 1425.62 410.906C1423.89 408.562 1421.59 406.57 1418.73 404.93C1415.92 403.289 1412.73 401.953 1409.17 400.922C1405.61 399.844 1402 399.023 1398.34 398.461C1394.73 397.852 1391.24 397.43 1387.87 397.195ZM1410.86 431.578H1347.72V423.562C1347.72 421.641 1348.23 420 1349.27 418.641C1350.3 417.234 1351.68 416.062 1353.41 415.125C1355.15 414.141 1357.14 413.367 1359.39 412.805C1361.64 412.195 1363.98 411.727 1366.42 411.398C1368.86 411.07 1371.27 410.859 1373.66 410.766C1376.1 410.672 1378.38 410.625 1380.48 410.625C1382.5 410.625 1384.63 410.672 1386.88 410.766C1389.18 410.859 1391.45 411.07 1393.7 411.398C1395.95 411.68 1398.11 412.125 1400.17 412.734C1402.28 413.297 1404.11 414.047 1405.66 414.984C1407.25 415.922 1408.52 417.094 1409.45 418.5C1410.39 419.859 1410.86 421.5 1410.86 423.422V431.578Z" fill="black"/>
</g>
<defs>
<filter id="filter0_d" x="0" y="0" width="1886" height="3685" filterUnits="userSpaceOnUse" color-interpolation-filters="sRGB">
<feFlood flood-opacity="0" result="BackgroundImageFix"/>
<feColorMatrix in="SourceAlpha" type="matrix" values="0 0 0 0 0 0 0 0 0 0 0 0 0 0 0 0 0 0 127 0"/>
<feOffset dy="4"/>
<feGaussianBlur stdDeviation="2"/>
<feColorMatrix type="matrix" values="0 0 0 0 0 0 0 0 0 0 0 0 0 0 0 0 0 0 0.25 0"/>
<feBlend mode="normal" in2="BackgroundImageFix" result="effect1_dropShadow"/>
<feBlend mode="normal" in="SourceGraphic" in2="effect1_dropShadow" result="shape"/>
</filter>
</defs>
</svg>
